<?xml version="1.0" standalone="no"?>
<!DOCTYPE svg PUBLIC "-//W3C//DTD SVG 20010904//EN"
 "http://www.w3.org/TR/2001/REC-SVG-20010904/DTD/svg10.dtd">
<svg version="1.0" xmlns="http://www.w3.org/2000/svg"
 width="700.000000pt" height="700.000000pt" viewBox="0 0 700.000000 700.000000"
 preserveAspectRatio="xMidYMid meet">
<metadata>
Created by potrace 1.14, written by Peter Selinger 2001-2017
</metadata>
<g transform="translate(0.000000,700.000000) scale(0.100000,-0.100000)"
fill="#000000" stroke="none">
<path d="M270 3500 l0 -2970 690 0 690 0 0 1113 c0 917 3 1129 15 1212 61 424
288 703 650 801 83 22 289 26 387 8 257 -49 446 -211 534 -459 19 -53 36 -132
48 -220 2 -16 5 -578 5 -1247 l1 -1218 690 0 691 0 -4 1483 c-1 815 -6 1493
-9 1507 -4 14 -9 48 -13 75 -36 286 -171 599 -349 810 -152 181 -309 292 -571
406 -55 24 -237 72 -320 84 -22 4 -51 9 -65 12 -46 9 -354 11 -440 2 -312 -32
-616 -144 -835 -307 -147 -109 -306 -281 -387 -418 l-23 -39 -3 1168 -2 1167
-690 0 -690 0 0 -2970z"/>
<path d="M5905 1855 c-264 -58 -441 -241 -492 -510 -14 -73 -8 -268 10 -335 2
-8 7 -28 12 -45 11 -44 60 -139 92 -182 92 -124 221 -204 378 -237 73 -15 225
-18 281 -6 21 5 50 11 64 14 158 30 328 165 410 326 64 126 87 353 49 499 -60
234 -229 407 -454 467 -79 21 -273 26 -350 9z"/>
</g>
</svg>
