<svg viewBox="0 0 104 104" fill="none" xmlns="http://www.w3.org/2000/svg">
  <path d="M92.8571 0H11.1429C8.18758 0 5.35336 1.17397 3.26367 3.26367C1.17397 5.35336 0 8.18758 0 11.1429V92.8571C0 95.8124 1.17397 98.6465 3.26367 100.736C5.35336 102.826 8.18758 104 11.1429 104H43.0045V68.6423H28.3794V52H43.0045V39.3158C43.0045 24.888 51.5937 16.9185 64.7493 16.9185C71.0496 16.9185 77.6379 18.0421 77.6379 18.0421V32.2029H70.3788C63.2264 32.2029 60.9955 36.6414 60.9955 41.1937V52H76.9623L74.4087 68.6423H60.9955V104H92.8571C95.8124 104 98.6467 102.826 100.736 100.736C102.826 98.6465 104 95.8124 104 92.8571V11.1429C104 8.18758 102.826 5.35336 100.736 3.26367C98.6467 1.17397 95.8124 0 92.8571 0Z" fill="currentColor" />
</svg>
