<svg viewBox="0 0 20 20" fill="none" xmlns="http://www.w3.org/2000/svg">
  <path d="M10 20C15.5228 20 20 15.5228 20 10C20 4.47715 15.5228 0 10 0C4.47715 0 0 4.47715 0 10C0 15.5228 4.47715 20 10 20Z" fill="#6DA544"/>
  <path d="M9.99914 3.91406L18.26 10.001L9.99914 16.088L1.73828 10.001L9.99914 3.91406Z" fill="#FFDA44"/>
  <path d="M10.0017 13.4799C11.9227 13.4799 13.4799 11.9227 13.4799 10.0017C13.4799 8.0807 11.9227 6.52344 10.0017 6.52344C8.0807 6.52344 6.52344 8.0807 6.52344 10.0017C6.52344 11.9227 8.0807 13.4799 10.0017 13.4799Z" fill="#F0F0F0"/>
  <path d="M8.26144 9.78125C7.6566 9.78125 7.07289 9.87324 6.52344 10.0439C6.54777 11.9439 8.0948 13.4769 10.0006 13.4769C11.179 13.4769 12.2198 12.8903 12.849 11.9938C11.7725 10.6462 10.1162 9.78125 8.26144 9.78125Z" fill="#0052B4"/>
  <path d="M13.4167 10.6681C13.4586 10.4523 13.4812 10.2297 13.4812 10.0017C13.4812 8.08066 11.9239 6.52344 10.003 6.52344C8.56961 6.52344 7.33914 7.39066 6.80664 8.62887C7.27734 8.53133 7.76469 8.47996 8.26386 8.47996C10.2841 8.47992 12.1116 9.31969 13.4167 10.6681Z" fill="#0052B4"/>
</svg>
