<svg viewBox="0 0 32 26" fill="none" xmlns="http://www.w3.org/2000/svg">
  <path d="M12.4067 17.8459C12.4067 19.2392 11.68 21.5192 9.96 21.5192C8.24 21.5192 7.51333 19.2392 7.51333 17.8459C7.51333 16.4526 8.24 14.1726 9.96 14.1726C11.68 14.1726 12.4067 16.4526 12.4067 17.8459ZM32 14.4792C32 16.6059 31.7867 18.8592 30.8333 20.8126C28.3067 25.9192 21.36 25.7992 16.3867 25.7992C11.3333 25.7992 3.97333 25.9792 1.34667 20.8126C0.373333 18.8792 0 16.6059 0 14.4792C0 11.6859 0.926667 9.04589 2.76667 6.90589C2.42 5.85255 2.25333 4.74589 2.25333 3.65255C2.25333 2.21922 2.58 1.49922 3.22667 0.199219C6.24667 0.199219 8.18 0.799219 10.48 2.59922C12.4133 2.13922 14.4 1.93255 16.3933 1.93255C18.1933 1.93255 20.0067 2.12589 21.7533 2.54589C24.02 0.765885 25.9533 0.199219 28.94 0.199219C29.5933 1.49922 29.9133 2.21922 29.9133 3.65255C29.9133 4.74589 29.74 5.83255 29.4 6.86589C31.2333 9.02589 32 11.6859 32 14.4792ZM27.7133 17.8459C27.7133 14.9192 25.9333 12.3392 22.8133 12.3392C21.5533 12.3392 20.3467 12.5659 19.08 12.7392C18.0867 12.8926 17.0933 12.9526 16.0733 12.9526C15.06 12.9526 14.0667 12.8926 13.0667 12.7392C11.82 12.5659 10.6 12.3392 9.33333 12.3392C6.21333 12.3392 4.43333 14.9192 4.43333 17.8459C4.43333 23.6992 9.79333 24.5992 14.46 24.5992H17.6733C22.36 24.5992 27.7133 23.7059 27.7133 17.8459ZM22.2067 14.1726C20.4867 14.1726 19.76 16.4526 19.76 17.8459C19.76 19.2392 20.4867 21.5192 22.2067 21.5192C23.9267 21.5192 24.6533 19.2392 24.6533 17.8459C24.6533 16.4526 23.9267 14.1726 22.2067 14.1726Z" fill="currentColor"/>
</svg>
