<svg viewBox="0 0 32 32" fill="none" xmlns="http://www.w3.org/2000/svg">
  <path d="M16.0036 7.79704C11.4632 7.79704 7.801 11.4593 7.801 15.9996C7.801 20.5399 11.4632 24.2022 16.0036 24.2022C20.5439 24.2022 24.2061 20.5399 24.2061 15.9996C24.2061 11.4593 20.5439 7.79704 16.0036 7.79704ZM16.0036 21.3323C13.0695 21.3323 10.6708 18.9408 10.6708 15.9996C10.6708 13.0584 13.0624 10.6669 16.0036 10.6669C18.9448 10.6669 21.3363 13.0584 21.3363 15.9996C21.3363 18.9408 18.9376 21.3323 16.0036 21.3323ZM26.4549 7.46151C26.4549 8.5252 25.5982 9.37473 24.5417 9.37473C23.478 9.37473 22.6284 8.51807 22.6284 7.46151C22.6284 6.40496 23.4851 5.54829 24.5417 5.54829C25.5982 5.54829 26.4549 6.40496 26.4549 7.46151ZM31.8876 9.40329C31.7662 6.84043 31.1808 4.57027 29.3033 2.69988C27.4329 0.829498 25.1627 0.244111 22.5999 0.115611C19.9585 -0.0343053 12.0415 -0.0343053 9.40011 0.115611C6.8444 0.236972 4.57423 0.822359 2.69671 2.69274C0.819186 4.56313 0.240937 6.83329 0.112437 9.39615C-0.0374791 12.0375 -0.0374791 19.9545 0.112437 22.5959C0.233798 25.1588 0.819186 27.4289 2.69671 29.2993C4.57423 31.1697 6.83726 31.7551 9.40011 31.8836C12.0415 32.0335 19.9585 32.0335 22.5999 31.8836C25.1627 31.7622 27.4329 31.1768 29.3033 29.2993C31.1737 27.4289 31.7591 25.1588 31.8876 22.5959C32.0375 19.9545 32.0375 12.0447 31.8876 9.40329ZM28.4752 25.4301C27.9184 26.8293 26.8404 27.9072 25.434 28.4712C23.3281 29.3065 18.3308 29.1137 16.0036 29.1137C13.6763 29.1137 8.67195 29.2993 6.57312 28.4712C5.1739 27.9144 4.09593 26.8364 3.53196 25.4301C2.69671 23.3241 2.88946 18.3269 2.88946 15.9996C2.88946 13.6723 2.70385 8.66798 3.53196 6.56915C4.08879 5.16993 5.16676 4.09196 6.57312 3.52799C8.67909 2.69274 13.6763 2.88549 16.0036 2.88549C18.3308 2.88549 23.3352 2.69988 25.434 3.52799C26.8332 4.08482 27.9112 5.16279 28.4752 6.56915C29.3104 8.67512 29.1177 13.6723 29.1177 15.9996C29.1177 18.3269 29.3104 23.3312 28.4752 25.4301Z" fill="currentColor"/>
</svg>
