<svg viewBox="0 0 496 496" fill="none" xmlns="http://www.w3.org/2000/svg">
  <path d="M248 32C366.621 32 464 128.075 464 248C464 367.291 367.39 464 248 464C128.756 464 32 367.438 32 248C32 128.797 128.602 32 248 32ZM248 0C111.043 0 0 111.083 0 248C0 384.997 111.043 496 248 496C384.957 496 496 384.997 496 248C496 111.083 384.957 0 248 0ZM236.51 120H259.489C266.312 120 271.763 125.682 271.479 132.5L264.479 300.5C264.211 306.928 258.923 312 252.489 312H243.51C237.077 312 231.788 306.927 231.52 300.5L224.52 132.5C224.237 125.682 229.687 120 236.51 120ZM248 332C232.536 332 220 344.536 220 360C220 375.464 232.536 388 248 388C263.464 388 276 375.464 276 360C276 344.536 263.464 332 248 332Z" fill="currentColor"/>
</svg>
