<svg viewBox="0 0 22 22" fill="none" xmlns="http://www.w3.org/2000/svg">
  <path d="M18.985 22C18.8946 22 18.8041 22 18.7137 21.99C15.4674 21.6389 12.3116 20.5153 9.58803 18.7497C7.05536 17.1446 4.86441 14.9576 3.25637 12.4295C1.47747 9.70087 0.361895 6.54081 0.0101359 3.3005C-0.0602158 2.43776 0.221191 1.60511 0.784005 0.983128C1.35687 0.361149 2.17094 0 3.01516 0H6.06039C7.54782 0 8.82421 1.10351 9.03526 2.58824C9.15586 3.48108 9.36692 4.35385 9.68853 5.19653C10.1006 6.29001 9.83928 7.53397 9.00511 8.36662L8.28149 9.08892C9.46742 10.9348 11.0353 12.5098 12.8946 13.6936L13.6182 12.9713C14.4523 12.1487 15.7086 11.8778 16.8041 12.2891C17.6383 12.6001 18.5126 12.8208 19.4071 12.9412C20.9247 13.1518 22.0403 14.456 22.0101 15.9808V18.9804C22.0101 19.8231 21.6584 20.6357 21.0353 21.2075C20.4724 21.7191 19.7488 22 18.9951 22H18.985ZM6.05034 2.00638H3.01516C2.73375 2.00638 2.4624 2.12677 2.27144 2.33744C2.08049 2.54811 1.99004 2.829 2.01014 3.10989C2.32169 6.02918 3.33677 8.87825 4.93476 11.3561C6.39205 13.6534 8.37195 15.6197 10.6634 17.0743C13.1358 18.6794 15.98 19.6826 18.9046 20.0036C19.1659 20.0237 19.4473 19.9334 19.6584 19.7428C19.8694 19.5522 19.99 19.2813 19.98 19.0005V15.9909C19.98 15.9909 19.98 15.9708 19.98 15.9608C19.99 15.4492 19.6182 15.0178 19.1157 14.9476C18.0805 14.8071 17.0554 14.5563 16.0805 14.1952C15.7086 14.0547 15.2966 14.145 15.0152 14.4159L13.7388 15.6899C13.4172 16.0109 12.9247 16.0711 12.5327 15.8504C9.85938 14.3356 7.64833 12.1286 6.12069 9.4601C5.89958 9.06886 5.95988 8.57729 6.28149 8.25627L7.55787 6.98222C7.82923 6.71135 7.91968 6.29001 7.77898 5.92886C7.40712 4.94574 7.15586 3.92248 7.02521 2.88919C6.95486 2.40766 6.53275 2.03648 6.03024 2.03648L6.05034 2.00638Z" fill="currentColor"/>
</svg>
