<svg viewBox="0 0 120 98" fill="none" xmlns="http://www.w3.org/2000/svg">
  <path d="M107.665 24.5588C107.741 25.6247 107.741 26.6909 107.741 27.7568C107.741 60.2693 82.995 97.7313 37.7665 97.7313C23.8324 97.7313 10.8884 93.6956 0 86.6909C1.97977 86.9191 3.88312 86.9953 5.93906 86.9953C17.4363 86.9953 28.0202 83.1122 36.472 76.4878C25.6598 76.2593 16.5989 69.1781 13.477 59.4319C15 59.6602 16.5227 59.8125 18.1219 59.8125C20.3299 59.8125 22.5382 59.5078 24.5939 58.9751C13.3249 56.6906 4.87289 46.7923 4.87289 34.838V34.5335C8.14688 36.3609 11.9543 37.503 15.9895 37.6552C9.36516 33.2388 5.02523 25.7009 5.02523 17.1729C5.02523 12.6045 6.24328 8.41664 8.37539 4.7618C20.482 19.6856 38.6801 29.4316 59.0859 30.4978C58.7053 28.6704 58.4768 26.767 58.4768 24.8634C58.4768 11.31 69.4413 0.269531 83.0707 0.269531C90.1519 0.269531 96.5477 3.23906 101.04 8.03602C106.598 6.97008 111.928 4.91414 116.649 2.09695C114.822 7.80773 110.939 12.6047 105.837 15.6502C110.786 15.1174 115.583 13.7466 120 11.8432C116.65 16.7161 112.462 21.056 107.665 24.5588V24.5588Z" fill="currentColor"/>
</svg>
