<svg viewBox="0 0 104 104" fill="none" xmlns="http://www.w3.org/2000/svg">
  <path d="M43.3643 39.4875L65.4643 52.0464L43.3643 64.6054V39.4875ZM104 11.1429V92.8571C104 99.0089 99.0089 104 92.8571 104H11.1429C4.99107 104 0 99.0089 0 92.8571V11.1429C0 4.99107 4.99107 0 11.1429 0H92.8571C99.0089 0 104 4.99107 104 11.1429ZM94.25 52.0696C94.25 52.0696 94.25 38.2339 92.4857 31.5946C91.5107 27.9268 88.6554 25.0482 85.0107 24.0732C78.4411 22.2857 52 22.2857 52 22.2857C52 22.2857 25.5589 22.2857 18.9893 24.0732C15.3446 25.0482 12.4893 27.9268 11.5143 31.5946C9.75 38.2107 9.75 52.0696 9.75 52.0696C9.75 52.0696 9.75 65.9054 11.5143 72.5446C12.4893 76.2125 15.3446 78.975 18.9893 79.95C25.5589 81.7143 52 81.7143 52 81.7143C52 81.7143 78.4411 81.7143 85.0107 79.9268C88.6554 78.9518 91.5107 76.1893 92.4857 72.5214C94.25 65.9054 94.25 52.0696 94.25 52.0696Z" fill="currentColor"/>
</svg>
